<mxfile host="app.diagrams.net" modified="2023-11-17T15:10:13.806Z" agent="Mozilla/5.0 (Windows NT 10.0; Win64; x64) AppleWebKit/537.36 (KHTML, like Gecko) Chrome/118.0.0.0 Safari/537.36 OPR/104.0.0.0" etag="L3eUREAJ7cpGHFym2MnC" version="22.1.3" type="github">
  <diagram name="Page-1" id="VZYn9ivb_sibmHcv2tVm">
    <mxGraphModel dx="2138" dy="730" grid="0" gridSize="10" guides="1" tooltips="1" connect="1" arrows="1" fold="1" page="1" pageScale="1" pageWidth="850" pageHeight="1100" math="0" shadow="0">
      <root>
        <mxCell id="0" />
        <mxCell id="1" parent="0" />
        <mxCell id="4FUsjsGhjrOivOQpZJl0-7" value="Authentikasi" style="swimlane;whiteSpace=wrap;html=1;" parent="1" vertex="1">
          <mxGeometry x="-724" y="87" width="936.5" height="388.75" as="geometry">
            <mxRectangle x="30" y="80" width="107" height="26" as="alternateBounds" />
          </mxGeometry>
        </mxCell>
        <mxCell id="4FUsjsGhjrOivOQpZJl0-6" style="edgeStyle=orthogonalEdgeStyle;rounded=1;orthogonalLoop=1;jettySize=auto;html=1;" parent="4FUsjsGhjrOivOQpZJl0-7" source="4FUsjsGhjrOivOQpZJl0-8" target="4FUsjsGhjrOivOQpZJl0-9" edge="1">
          <mxGeometry relative="1" as="geometry">
            <mxPoint x="158" y="151.5" as="sourcePoint" />
            <mxPoint x="239" y="152" as="targetPoint" />
          </mxGeometry>
        </mxCell>
        <mxCell id="4FUsjsGhjrOivOQpZJl0-8" value="Request" style="ellipse;whiteSpace=wrap;html=1;" parent="4FUsjsGhjrOivOQpZJl0-7" vertex="1">
          <mxGeometry x="11" y="88" width="120" height="80" as="geometry" />
        </mxCell>
        <mxCell id="4FUsjsGhjrOivOQpZJl0-13" value="" style="edgeStyle=orthogonalEdgeStyle;rounded=0;orthogonalLoop=1;jettySize=auto;html=1;" parent="4FUsjsGhjrOivOQpZJl0-7" source="4FUsjsGhjrOivOQpZJl0-9" target="4FUsjsGhjrOivOQpZJl0-11" edge="1">
          <mxGeometry relative="1" as="geometry" />
        </mxCell>
        <mxCell id="4FUsjsGhjrOivOQpZJl0-9" value="Authenticate" style="rounded=0;whiteSpace=wrap;html=1;" parent="4FUsjsGhjrOivOQpZJl0-7" vertex="1">
          <mxGeometry x="196" y="109.25" width="120" height="64" as="geometry" />
        </mxCell>
        <mxCell id="k0yg_pgegpbLh8TlaGH8-4" value="" style="edgeStyle=none;curved=1;rounded=0;orthogonalLoop=1;jettySize=auto;html=1;fontSize=12;startSize=8;endSize=8;" edge="1" parent="4FUsjsGhjrOivOQpZJl0-7" source="4FUsjsGhjrOivOQpZJl0-11" target="k0yg_pgegpbLh8TlaGH8-3">
          <mxGeometry relative="1" as="geometry" />
        </mxCell>
        <mxCell id="k0yg_pgegpbLh8TlaGH8-5" value="no" style="edgeLabel;html=1;align=center;verticalAlign=middle;resizable=0;points=[];fontSize=16;" vertex="1" connectable="0" parent="k0yg_pgegpbLh8TlaGH8-4">
          <mxGeometry x="-0.3858" relative="1" as="geometry">
            <mxPoint as="offset" />
          </mxGeometry>
        </mxCell>
        <mxCell id="k0yg_pgegpbLh8TlaGH8-7" value="" style="edgeStyle=none;curved=1;rounded=0;orthogonalLoop=1;jettySize=auto;html=1;fontSize=12;startSize=8;endSize=8;" edge="1" parent="4FUsjsGhjrOivOQpZJl0-7" source="4FUsjsGhjrOivOQpZJl0-11" target="k0yg_pgegpbLh8TlaGH8-6">
          <mxGeometry relative="1" as="geometry" />
        </mxCell>
        <mxCell id="k0yg_pgegpbLh8TlaGH8-12" value="yes" style="edgeLabel;html=1;align=center;verticalAlign=middle;resizable=0;points=[];fontSize=16;" vertex="1" connectable="0" parent="k0yg_pgegpbLh8TlaGH8-7">
          <mxGeometry x="-0.0885" y="-3" relative="1" as="geometry">
            <mxPoint as="offset" />
          </mxGeometry>
        </mxCell>
        <mxCell id="4FUsjsGhjrOivOQpZJl0-11" value="Valid token?" style="rhombus;whiteSpace=wrap;html=1;" parent="4FUsjsGhjrOivOQpZJl0-7" vertex="1">
          <mxGeometry x="370" y="88" width="133" height="100.5" as="geometry" />
        </mxCell>
        <mxCell id="k0yg_pgegpbLh8TlaGH8-3" value="response error :&lt;br&gt;invalid token (401)" style="whiteSpace=wrap;html=1;fontSize=16;" vertex="1" parent="4FUsjsGhjrOivOQpZJl0-7">
          <mxGeometry x="376.5" y="233" width="120" height="60" as="geometry" />
        </mxCell>
        <mxCell id="k0yg_pgegpbLh8TlaGH8-8" style="edgeStyle=none;curved=1;rounded=0;orthogonalLoop=1;jettySize=auto;html=1;fontSize=12;startSize=8;endSize=8;" edge="1" parent="4FUsjsGhjrOivOQpZJl0-7" source="k0yg_pgegpbLh8TlaGH8-6" target="k0yg_pgegpbLh8TlaGH8-3">
          <mxGeometry relative="1" as="geometry" />
        </mxCell>
        <mxCell id="k0yg_pgegpbLh8TlaGH8-9" value="yes" style="edgeLabel;html=1;align=center;verticalAlign=middle;resizable=0;points=[];fontSize=16;" vertex="1" connectable="0" parent="k0yg_pgegpbLh8TlaGH8-8">
          <mxGeometry x="-0.2513" relative="1" as="geometry">
            <mxPoint as="offset" />
          </mxGeometry>
        </mxCell>
        <mxCell id="k0yg_pgegpbLh8TlaGH8-11" value="" style="edgeStyle=none;curved=1;rounded=0;orthogonalLoop=1;jettySize=auto;html=1;fontSize=12;startSize=8;endSize=8;" edge="1" parent="4FUsjsGhjrOivOQpZJl0-7" source="k0yg_pgegpbLh8TlaGH8-6" target="k0yg_pgegpbLh8TlaGH8-10">
          <mxGeometry relative="1" as="geometry" />
        </mxCell>
        <mxCell id="k0yg_pgegpbLh8TlaGH8-13" value="yes" style="edgeLabel;html=1;align=center;verticalAlign=middle;resizable=0;points=[];fontSize=16;" vertex="1" connectable="0" parent="k0yg_pgegpbLh8TlaGH8-11">
          <mxGeometry x="-0.3646" y="1" relative="1" as="geometry">
            <mxPoint as="offset" />
          </mxGeometry>
        </mxCell>
        <mxCell id="k0yg_pgegpbLh8TlaGH8-6" value="expired?" style="rhombus;whiteSpace=wrap;html=1;fontSize=16;" vertex="1" parent="4FUsjsGhjrOivOQpZJl0-7">
          <mxGeometry x="557" y="91" width="133" height="100.5" as="geometry" />
        </mxCell>
        <mxCell id="k0yg_pgegpbLh8TlaGH8-10" value="next()" style="whiteSpace=wrap;html=1;fontSize=16;" vertex="1" parent="4FUsjsGhjrOivOQpZJl0-7">
          <mxGeometry x="761" y="118" width="120" height="60" as="geometry" />
        </mxCell>
        <mxCell id="k0yg_pgegpbLh8TlaGH8-14" value="Authorization" style="swimlane;whiteSpace=wrap;html=1;fontSize=16;" vertex="1" parent="1">
          <mxGeometry x="-724" y="575" width="936" height="396" as="geometry" />
        </mxCell>
        <mxCell id="k0yg_pgegpbLh8TlaGH8-17" value="" style="edgeStyle=none;curved=1;rounded=0;orthogonalLoop=1;jettySize=auto;html=1;fontSize=12;startSize=8;endSize=8;" edge="1" parent="k0yg_pgegpbLh8TlaGH8-14" source="k0yg_pgegpbLh8TlaGH8-15" target="k0yg_pgegpbLh8TlaGH8-16">
          <mxGeometry relative="1" as="geometry" />
        </mxCell>
        <mxCell id="k0yg_pgegpbLh8TlaGH8-15" value="Request" style="ellipse;whiteSpace=wrap;html=1;fontSize=16;" vertex="1" parent="k0yg_pgegpbLh8TlaGH8-14">
          <mxGeometry x="31" y="127" width="120" height="80" as="geometry" />
        </mxCell>
        <mxCell id="k0yg_pgegpbLh8TlaGH8-16" value="validator" style="whiteSpace=wrap;html=1;fontSize=16;" vertex="1" parent="k0yg_pgegpbLh8TlaGH8-14">
          <mxGeometry x="222" y="137" width="120" height="60" as="geometry" />
        </mxCell>
      </root>
    </mxGraphModel>
  </diagram>
</mxfile>
